<svg id="svg2" height="512" width="512" xmlns="http://www.w3.org/2000/svg" xmlns:xlink="http://www.w3.org/1999/xlink" xmlns:cc="http://creativecommons.org/ns#" xmlns:dc="http://purl.org/dc/elements/1.1/" xmlns:inkscape="http://www.inkscape.org/namespaces/inkscape" xmlns:rdf="http://www.w3.org/1999/02/22-rdf-syntax-ns#" xmlns:sodipodi="http://sodipodi.sourceforge.net/DTD/sodipodi-0.dtd" xmlns:svg="http://www.w3.org/2000/svg"><clipPath id="clipPath3004"><rect id="rect3006" height="500" ry="50" width="500" x="6" y="546.362"/></clipPath><clipPath id="clipPath3019"><path id="path3021" d="m-360 118a208 208 0 1 1 -416 0 208 208 0 1 1 416 0z" transform="matrix(1.202 0 0 1.202 938.692 654.535)"/></clipPath><g id="layer1" transform="translate(0 -540.362)"><g id="g3786" clip-path="url(#clipPath3019)" transform="matrix(.96 0 0 .96 10.24 31.854)"><g id="g3753" transform="matrix(0 1 1 0 -530.362 540.362)"><path id="rect2985" d="m536.362-506h166.667v500h-166.667z" fill="#2980b9" transform="rotate(90)"/><path id="rect2987" d="m703.029-506h166.667v500h-166.667z" fill="#f1c40f" transform="rotate(90)"/><path id="rect2989" d="m869.696-506h166.667v500h-166.667z" fill="#e74c3c" transform="rotate(90)"/></g></g></g></svg>